<?xml version="1.0" encoding="UTF-8"?>
<svg width="280px" height="280px" viewBox="0 0 280 280" version="1.1" xmlns="http://www.w3.org/2000/svg" xmlns:xlink="http://www.w3.org/1999/xlink">
    <title>Mazely logo</title>
    <g stroke="none" stroke-width="1" fill="none" fill-rule="evenodd">
        <path d="M174.808921,91.1235824 L164.003149,101.929355 C157.056279,97.5402241 148.82479,95 140,95 C115.147186,95 95,115.147186 95,140 C95,164.852814 115.147186,185 140,185 C143.43694,185 146.783886,184.614693 150,183.884918 L150,239.506248 C146.710938,239.832806 143.374994,240 140,240 C88.146519,240 45.5109967,200.533227 40.4937524,150 L18.3629128,150 C23.2115461,213.215379 76.0418625,263 140.5,263 C204.958138,263 257.788454,213.215379 262.637087,150 L239.506248,150 C235.500324,190.347292 207.513051,223.639809 170,235.421977 L170,217.792922 C201.538606,206.030875 224,175.638507 224,140 C224,120.447277 217.238981,102.473675 205.927261,88.2895133 L217.463034,76.7537406 C229.568308,91.5623945 237.511226,109.906328 239.506248,130 L262.556295,130 C258.075159,77.2121842 220.118964,33.9665694 170,21.5754458 L170,44.5780228 C182.304314,48.4425845 193.583801,54.6213281 203.328356,62.6041476 L191.673458,74.2590459 C177.654949,63.4375518 160.07926,57 141,57 C105.739318,57 75.6141295,78.9876655 63.5874331,109.999999 L44.5780228,110 C57.3206592,69.4289305 95.2235821,40 140,40 C143.374994,40 146.710938,40.1671944 150,40.4937524 L150,0.351640511 C222.652756,5.47910545 280,66.0424695 280,140 C280,217.319865 217.319865,280 140,280 C62.680135,280 0,217.319865 0,140 C0,136.637666 0.118530349,133.303015 0.351640511,130 L58.5962514,130 C58.2025715,133.278378 58,136.615532 58,140 C58,182.110413 89.360046,216.896294 130,222.277507 L130,199.170416 C101.622867,194.409635 80,169.729963 80,140 C80,106.862915 106.862915,80 140,80 C152.977502,80 164.992705,84.1200902 174.808921,91.1235824 Z M130,18.4437055 C77.5638384,22.8949894 34.5431675,60.3768196 21.8271834,110 L3.22179538,110 C16.2662312,50.2520684 67.4630663,4.76518177 130,0.351640511 L130,18.4437055 Z M140,160 C128.954305,160 120,151.045695 120,140 C120,128.954305 128.954305,120 140,120 C151.045695,120 160,128.954305 160,140 C160,151.045695 151.045695,160 140,160 Z" id="Shape" fill="#DE2026"></path>
    </g>
</svg>
